<svg id="Capa_1" data-name="Capa 1" xmlns="http://www.w3.org/2000/svg" viewBox="0 0 100 80"><defs><style>.cls-1{fill:#fff;}.cls-2{fill:#eee;}.cls-3{fill:#d8d8d8;}</style></defs><rect class="cls-1" x="11" y="11" width="78" height="58" rx="5"/><rect class="cls-2" x="15" y="15" width="20.67" height="50" rx="3"/><rect class="cls-2" x="39.67" y="15" width="20.67" height="50" rx="3"/><rect class="cls-2" x="64.33" y="15" width="20.67" height="50" rx="3"/><path class="cls-3" d="M84,71H16a7,7,0,0,1-7-7V16a7,7,0,0,1,7-7H84a7,7,0,0,1,7,7V64A7,7,0,0,1,84,71ZM16,11a5,5,0,0,0-5,5V64a5,5,0,0,0,5,5H84a5,5,0,0,0,5-5V16a5,5,0,0,0-5-5Z"/></svg>