<?xml version="1.0" encoding="UTF-8"?><svg id="Capa_1" xmlns="http://www.w3.org/2000/svg" viewBox="0 0 100 80"><defs><style>.cls-1{fill:#d8d8d8;}.cls-2{fill:#888;}</style></defs><path class="cls-1" d="M20,66c-.55,0-1-.45-1-1v-1.5c0-.55,.45-1,1-1s1,.45,1,1v1.5c0,.55-.45,1-1,1Z"/><path class="cls-1" d="M20.81,55.99c-.17,0-.34-.04-.5-.13-.48-.28-.64-.89-.36-1.37,.56-.97,1.36-1.8,2.31-2.4,.47-.3,1.08-.16,1.38,.31,.3,.47,.16,1.08-.31,1.38-.68,.43-1.25,1.02-1.65,1.72-.19,.32-.52,.5-.87,.5Zm58.38-.02c-.34,0-.68-.18-.86-.49-.41-.69-.98-1.28-1.66-1.71-.47-.29-.61-.91-.31-1.38,.29-.47,.91-.61,1.38-.31,.95,.6,1.75,1.42,2.32,2.39,.28,.48,.12,1.09-.36,1.37-.16,.09-.33,.14-.5,.14Zm-10.46-2.97h-2.88c-.55,0-1-.45-1-1s.45-1,1-1h2.88c.55,0,1,.45,1,1s-.45,1-1,1Zm-11.53,0h-2.88c-.55,0-1-.45-1-1s.45-1,1-1h2.88c.55,0,1,.45,1,1s-.45,1-1,1Zm-11.53,0h-2.88c-.55,0-1-.45-1-1s.45-1,1-1h2.88c.55,0,1,.45,1,1s-.45,1-1,1Zm-11.53,0h-2.88c-.55,0-1-.45-1-1s.45-1,1-1h2.88c.55,0,1,.45,1,1s-.45,1-1,1Z"/><path class="cls-1" d="M80,66c-.55,0-1-.45-1-1v-1.5c0-.55,.45-1,1-1s1,.45,1,1v1.5c0,.55-.45,1-1,1Z"/><path class="cls-1" d="M20,17.5c-.55,0-1-.45-1-1v-1.5c0-.55,.45-1,1-1s1,.45,1,1v1.5c0,.55-.45,1-1,1Z"/><path class="cls-1" d="M68.72,29h-2.88c-.55,0-1-.45-1-1s.45-1,1-1h2.88c.55,0,1,.45,1,1s-.45,1-1,1Zm-11.53,0h-2.88c-.55,0-1-.45-1-1s.45-1,1-1h2.88c.55,0,1,.45,1,1s-.45,1-1,1Zm-11.53,0h-2.88c-.55,0-1-.45-1-1s.45-1,1-1h2.88c.55,0,1,.45,1,1s-.45,1-1,1Zm-11.53,0h-2.88c-.55,0-1-.45-1-1s.45-1,1-1h2.88c.55,0,1,.45,1,1s-.45,1-1,1Zm43.06-.92c-.33,0-.66-.17-.85-.47-.29-.47-.15-1.08,.31-1.38,.68-.43,1.25-1.02,1.66-1.71,.28-.48,.89-.64,1.37-.36,.48,.28,.64,.89,.36,1.37-.57,.97-1.37,1.79-2.32,2.39-.17,.1-.35,.15-.53,.15Zm-54.41-.01c-.18,0-.37-.05-.54-.16-.95-.6-1.74-1.43-2.31-2.4-.28-.48-.11-1.09,.36-1.37,.48-.28,1.09-.11,1.37,.36,.4,.69,.97,1.29,1.65,1.72,.47,.3,.6,.91,.31,1.38-.19,.3-.51,.46-.84,.46Z"/><path class="cls-1" d="M80,17.5c-.55,0-1-.45-1-1v-1.5c0-.55,.45-1,1-1s1,.45,1,1v1.5c0,.55-.45,1-1,1Z"/><path class="cls-2" d="M80,41H20c-.55,0-1-.45-1-1s.45-1,1-1h60c.55,0,1,.45,1,1s-.45,1-1,1Z"/></svg>