<svg id="Capa_1" data-name="Capa 1" xmlns="http://www.w3.org/2000/svg" viewBox="0 0 100 80"><defs><style>.cls-1{fill:#d8d8d8;}.cls-2{fill:#888;}</style></defs><path class="cls-1" d="M20,66a1,1,0,0,1-1-1V63.5a1,1,0,0,1,2,0V65A1,1,0,0,1,20,66Z"/><path class="cls-1" d="M20.81,56a1,1,0,0,1-.51-.13,1,1,0,0,1-.36-1.37,7,7,0,0,1,2.31-2.4,1,1,0,0,1,1.07,1.69,5,5,0,0,0-1.65,1.71A1,1,0,0,1,20.81,56Zm58.37,0a1,1,0,0,1-.86-.49,5,5,0,0,0-1.66-1.71,1,1,0,0,1,1.07-1.7A7.13,7.13,0,0,1,80,54.46a1,1,0,0,1-.35,1.37A1,1,0,0,1,79.18,56ZM68.72,53H65.84a1,1,0,0,1,0-2h2.88a1,1,0,0,1,0,2ZM57.19,53H54.31a1,1,0,0,1,0-2h2.88a1,1,0,0,1,0,2ZM45.66,53H42.78a1,1,0,0,1,0-2h2.88a1,1,0,0,1,0,2ZM34.13,53H31.25a1,1,0,0,1,0-2h2.88a1,1,0,0,1,0,2Z"/><path class="cls-1" d="M80,66a1,1,0,0,1-1-1V63.5a1,1,0,0,1,2,0V65A1,1,0,0,1,80,66Z"/><path class="cls-1" d="M20,17.5a1,1,0,0,1-1-1V15a1,1,0,0,1,2,0v1.5A1,1,0,0,1,20,17.5Z"/><path class="cls-1" d="M68.72,29H65.84a1,1,0,0,1,0-2h2.88a1,1,0,0,1,0,2ZM57.19,29H54.31a1,1,0,0,1,0-2h2.88a1,1,0,0,1,0,2ZM45.66,29H42.78a1,1,0,0,1,0-2h2.88a1,1,0,0,1,0,2ZM34.13,29H31.25a1,1,0,0,1,0-2h2.88a1,1,0,0,1,0,2Zm43.06-.92a1,1,0,0,1-.84-.47,1,1,0,0,1,.31-1.38,5,5,0,0,0,1.66-1.71,1,1,0,0,1,1.72,1,7.13,7.13,0,0,1-2.31,2.39A1,1,0,0,1,77.19,28.08Zm-54.41,0a.94.94,0,0,1-.53-.16,7,7,0,0,1-2.31-2.4,1,1,0,1,1,1.73-1,5,5,0,0,0,1.65,1.71,1,1,0,0,1-.54,1.85Z"/><path class="cls-1" d="M80,17.5a1,1,0,0,1-1-1V15a1,1,0,0,1,2,0v1.5A1,1,0,0,1,80,17.5Z"/><path class="cls-2" d="M80,41H20a1,1,0,0,1,0-2H80a1,1,0,0,1,0,2Z"/></svg>