<svg id="Capa_1" data-name="Capa 1" xmlns="http://www.w3.org/2000/svg" viewBox="0 0 100 80"><defs><style>.cls-1{fill:#fff;}.cls-2{fill:#08e;}.cls-3{fill:#d8d8d8;}.cls-4{fill:#eee;}</style></defs><path class="cls-1" d="M21,55H79a0,0,0,0,1,0,0v9a5,5,0,0,1-5,5H26a5,5,0,0,1-5-5V55a0,0,0,0,1,0,0Z"/><path class="cls-1" d="M26,11H74a5,5,0,0,1,5,5V53a0,0,0,0,1,0,0H21a0,0,0,0,1,0,0V16A5,5,0,0,1,26,11Z"/><rect class="cls-2" x="55" y="59" width="20" height="6" rx="1"/><path class="cls-3" d="M74,9H26a7,7,0,0,0-7,7V64a7,7,0,0,0,7,7H74a7,7,0,0,0,7-7V16A7,7,0,0,0,74,9ZM26,11H74a5,5,0,0,1,5,5V53H21V16A5,5,0,0,1,26,11ZM74,69H26a5,5,0,0,1-5-5V55H79v9A5,5,0,0,1,74,69Z"/><rect class="cls-4" x="25" y="15" width="50" height="8.67" rx="1"/><rect class="cls-4" x="25" y="40.33" width="50" height="8.67" rx="1"/><rect class="cls-4" x="25" y="27.67" width="50" height="8.67" rx="1"/></svg>