<?xml version="1.0" encoding="UTF-8"?><svg id="Capa_3" xmlns="http://www.w3.org/2000/svg" viewBox="0 0 100 80"><defs><style>.cls-1{fill:#005f99;}.cls-2{fill:#222;}.cls-3{fill:#333;}.cls-4{fill:#484848;}</style></defs><path class="cls-2" d="M21,55h58v9c0,2.76-2.24,5-5,5H26c-2.76,0-5-2.24-5-5v-9h0Z"/><path class="cls-2" d="M26,11h48c2.76,0,5,2.24,5,5V53H21V16c0-2.76,2.24-5,5-5Z"/><rect class="cls-1" x="55" y="59" width="20" height="6" rx="1" ry="1"/><path class="cls-4" d="M74,9H26c-3.86,0-7,3.14-7,7v48c0,3.86,3.14,7,7,7h48c3.86,0,7-3.14,7-7V16c0-3.86-3.14-7-7-7Zm-48,2h48c2.76,0,5,2.24,5,5V53H21V16c0-2.76,2.24-5,5-5Zm48,58H26c-2.76,0-5-2.24-5-5v-9h58v9c0,2.76-2.24,5-5,5Z"/><rect class="cls-3" x="25" y="15" width="50" height="8.67" rx="1" ry="1"/><rect class="cls-3" x="25" y="40.33" width="50" height="8.67" rx="1" ry="1"/><rect class="cls-3" x="25" y="27.67" width="50" height="8.67" rx="1" ry="1"/></svg>