<?xml version="1.0" encoding="UTF-8"?><svg id="Capa_3" xmlns="http://www.w3.org/2000/svg" viewBox="0 0 100 80"><defs><style>.cls-1{fill:#222;}.cls-2{fill:#7f7d50;}.cls-3{fill:#587f5d;}.cls-4{fill:#666;}</style></defs><rect class="cls-1" x="16" y="16" width="68" height="48" rx="5" ry="5"/><path class="cls-4" d="M79,66H21c-3.86,0-7-3.14-7-7V21c0-3.86,3.14-7,7-7h58c3.86,0,7,3.14,7,7V59c0,3.86-3.14,7-7,7ZM21,16c-2.76,0-5,2.24-5,5V59c0,2.76,2.24,5,5,5h58c2.76,0,5-2.24,5-5V21c0-2.76-2.24-5-5-5H21Z"/><path class="cls-3" d="M79.71,43.29l-20-20c-.19-.19-.44-.29-.71-.29h0c-.27,0-.52,.11-.71,.31l-24.29,25.27-4.28-4.28c-.39-.39-1.02-.39-1.41,0l-8,8c-.19,.19-.29,.44-.29,.71v4c0,1.65,1.35,3,3,3h54c1.65,0,3-1.35,3-3v-13c0-.27-.11-.52-.29-.71Z"/><circle class="cls-2" cx="27" cy="27" r="7"/></svg>