<svg id="Capa_1" data-name="Capa 1" xmlns="http://www.w3.org/2000/svg" viewBox="0 0 100 80"><defs><style>.cls-1{fill:#fff;}.cls-2{fill:#888;}.cls-3{fill:#8c9;}.cls-4{fill:#dd8;}</style></defs><rect class="cls-1" x="16" y="16" width="68" height="48" rx="5"/><path class="cls-2" d="M79,66H21a7,7,0,0,1-7-7V21a7,7,0,0,1,7-7H79a7,7,0,0,1,7,7V59A7,7,0,0,1,79,66ZM21,16a5,5,0,0,0-5,5V59a5,5,0,0,0,5,5H79a5,5,0,0,0,5-5V21a5,5,0,0,0-5-5Z"/><path class="cls-3" d="M79.71,43.29l-20-20A1.05,1.05,0,0,0,59,23h0a1,1,0,0,0-.71.31L34,48.57l-4.28-4.28a1,1,0,0,0-1.42,0l-8,8A1,1,0,0,0,20,53v4a3,3,0,0,0,3,3H77a3,3,0,0,0,3-3V44A1,1,0,0,0,79.71,43.29Z"/><circle class="cls-4" cx="27" cy="27" r="7"/></svg>