<svg id="Capa_1" data-name="Capa 1" xmlns="http://www.w3.org/2000/svg" viewBox="0 0 100 80"><defs><style>.cls-1{fill:#888;}.cls-2{fill:#eee;}.cls-3{fill:#d8d8d8;}</style></defs><path class="cls-1" d="M28.83,23.81h-1V22.12h2.94v7.76H28.83Z"/><path class="cls-1" d="M26.84,42.56c1.65-1.36,3.4-2.71,3.4-4,0-.56-.25-.92-.8-.92s-.86.43-.86,1.16H26.82a2.53,2.53,0,0,1,2.69-2.69,2.25,2.25,0,0,1,2.55,2.34c0,1.7-1.52,3.06-2.75,4h2.87v1.48H26.84Z"/><path class="cls-1" d="M29.54,50c1.64,0,2.52.93,2.52,2.1a1.77,1.77,0,0,1-1.17,1.75v0a1.81,1.81,0,0,1,1.31,1.87A2.26,2.26,0,0,1,29.64,58c-1.62,0-2.79-.76-2.84-2.52h1.76a.94.94,0,0,0,1,1,.81.81,0,0,0,.88-.87c0-.69-.42-1-1.36-1h-.34V53.18h.34c.61,0,1.21-.15,1.21-.85a.74.74,0,0,0-.8-.81.81.81,0,0,0-.83.85H26.9A2.35,2.35,0,0,1,29.54,50Z"/><rect class="cls-2" x="37" y="38" width="37" height="4" rx="1"/><rect class="cls-2" x="37" y="24" width="37" height="4" rx="1"/><rect class="cls-2" x="37" y="52" width="37" height="4" rx="1"/><path class="cls-3" d="M25,66H21a7,7,0,0,1-7-7V55a1,1,0,0,1,2,0v4a5,5,0,0,0,5,5h4a1,1,0,0,1,0,2Z"/><path class="cls-3" d="M79,66H75a1,1,0,0,1,0-2h4a5,5,0,0,0,5-5V55a1,1,0,0,1,2,0v4A7,7,0,0,1,79,66Z"/><path class="cls-3" d="M85,26a1,1,0,0,1-1-1V21a5,5,0,0,0-5-5H75a1,1,0,0,1,0-2h4a7,7,0,0,1,7,7v4A1,1,0,0,1,85,26Z"/><path class="cls-3" d="M15,26a1,1,0,0,1-1-1V21a7,7,0,0,1,7-7h4a1,1,0,0,1,0,2H21a5,5,0,0,0-5,5v4A1,1,0,0,1,15,26Z"/></svg>