<svg id="Capa_1" data-name="Capa 1" xmlns="http://www.w3.org/2000/svg" viewBox="0 0 100 80"><defs><style>.cls-1{fill:#888;}.cls-2{fill:#eee;}.cls-3{fill:#d8d8d8;}</style></defs><circle class="cls-1" cx="29.5" cy="40" r="3.5"/><circle class="cls-1" cx="29.5" cy="26" r="3.5"/><circle class="cls-1" cx="29.5" cy="54" r="3.5"/><rect class="cls-2" x="37" y="38" width="37" height="4" rx="1"/><rect class="cls-2" x="37" y="24" width="37" height="4" rx="1"/><rect class="cls-2" x="37" y="52" width="37" height="4" rx="1"/><path class="cls-3" d="M25,66H21a7,7,0,0,1-7-7V55a1,1,0,0,1,2,0v4a5,5,0,0,0,5,5h4a1,1,0,0,1,0,2Z"/><path class="cls-3" d="M79,66H75a1,1,0,0,1,0-2h4a5,5,0,0,0,5-5V55a1,1,0,0,1,2,0v4A7,7,0,0,1,79,66Z"/><path class="cls-3" d="M85,26a1,1,0,0,1-1-1V21a5,5,0,0,0-5-5H75a1,1,0,0,1,0-2h4a7,7,0,0,1,7,7v4A1,1,0,0,1,85,26Z"/><path class="cls-3" d="M15,26a1,1,0,0,1-1-1V21a7,7,0,0,1,7-7h4a1,1,0,0,1,0,2H21a5,5,0,0,0-5,5v4A1,1,0,0,1,15,26Z"/></svg>