<?xml version="1.0" encoding="UTF-8"?><svg id="Capa_1" xmlns="http://www.w3.org/2000/svg" viewBox="0 0 100 80"><defs><style>.cls-1{fill:#d8d8d8;}.cls-2{fill:#eee;}.cls-3{fill:#888;}</style></defs><circle class="cls-3" cx="29.5" cy="40" r="3.5"/><circle class="cls-3" cx="29.5" cy="26" r="3.5"/><circle class="cls-3" cx="29.5" cy="54" r="3.5"/><rect class="cls-2" x="37" y="38" width="37" height="4" rx="1" ry="1"/><rect class="cls-2" x="37" y="24" width="37" height="4" rx="1" ry="1"/><rect class="cls-2" x="37" y="52" width="37" height="4" rx="1" ry="1"/><path class="cls-1" d="M25,66h-4c-3.86,0-7-3.14-7-7v-4c0-.55,.45-1,1-1s1,.45,1,1v4c0,2.76,2.24,5,5,5h4c.55,0,1,.45,1,1s-.45,1-1,1Z"/><path class="cls-1" d="M79,66h-4c-.55,0-1-.45-1-1s.45-1,1-1h4c2.76,0,5-2.24,5-5v-4c0-.55,.45-1,1-1s1,.45,1,1v4c0,3.86-3.14,7-7,7Z"/><path class="cls-1" d="M85,26c-.55,0-1-.45-1-1v-4c0-2.76-2.24-5-5-5h-4c-.55,0-1-.45-1-1s.45-1,1-1h4c3.86,0,7,3.14,7,7v4c0,.55-.45,1-1,1Z"/><path class="cls-1" d="M15,26c-.55,0-1-.45-1-1v-4c0-3.86,3.14-7,7-7h4c.55,0,1,.45,1,1s-.45,1-1,1h-4c-2.76,0-5,2.24-5,5v4c0,.55-.45,1-1,1Z"/></svg>