<?xml version="1.0" encoding="UTF-8"?><svg id="Capa_3" xmlns="http://www.w3.org/2000/svg" viewBox="0 0 100 80"><defs><style>.cls-1{fill:#333;}.cls-2{fill:#484848;}.cls-3{fill:#666;}</style></defs><path class="cls-3" d="M28.83,23.81h-1.05v-1.69h2.94v7.76h-1.89v-6.07Z"/><path class="cls-3" d="M26.84,42.56c1.65-1.36,3.4-2.71,3.4-4.02,0-.56-.26-.92-.81-.92s-.86,.43-.86,1.16h-1.75c.05-1.88,1.28-2.69,2.69-2.69,1.76,0,2.55,1.03,2.55,2.34,0,1.7-1.52,3.06-2.75,4.01h2.87v1.48h-5.33v-1.35Z"/><path class="cls-3" d="M29.54,50c1.64,0,2.52,.93,2.52,2.1,0,1.02-.64,1.56-1.17,1.74v.04c.78,.25,1.31,.85,1.31,1.87,0,1.31-.94,2.24-2.56,2.24s-2.78-.76-2.84-2.52h1.76c.01,.61,.34,1.01,1.01,1.01,.56,0,.87-.36,.87-.87,0-.69-.41-.97-1.36-.97h-.34v-1.48h.34c.62,0,1.21-.15,1.21-.85,0-.52-.31-.81-.8-.81-.58,0-.8,.43-.83,.85h-1.77c.06-1.53,1.06-2.37,2.65-2.37Z"/><rect class="cls-1" x="37" y="38" width="37" height="4" rx="1" ry="1"/><rect class="cls-1" x="37" y="24" width="37" height="4" rx="1" ry="1"/><rect class="cls-1" x="37" y="52" width="37" height="4" rx="1" ry="1"/><path class="cls-2" d="M25,66h-4c-3.86,0-7-3.14-7-7v-4c0-.55,.45-1,1-1s1,.45,1,1v4c0,2.76,2.24,5,5,5h4c.55,0,1,.45,1,1s-.45,1-1,1Z"/><path class="cls-2" d="M79,66h-4c-.55,0-1-.45-1-1s.45-1,1-1h4c2.76,0,5-2.24,5-5v-4c0-.55,.45-1,1-1s1,.45,1,1v4c0,3.86-3.14,7-7,7Z"/><path class="cls-2" d="M85,26c-.55,0-1-.45-1-1v-4c0-2.76-2.24-5-5-5h-4c-.55,0-1-.45-1-1s.45-1,1-1h4c3.86,0,7,3.14,7,7v4c0,.55-.45,1-1,1Z"/><path class="cls-2" d="M15,26c-.55,0-1-.45-1-1v-4c0-3.86,3.14-7,7-7h4c.55,0,1,.45,1,1s-.45,1-1,1h-4c-2.76,0-5,2.24-5,5v4c0,.55-.45,1-1,1Z"/></svg>