<?xml version="1.0" encoding="UTF-8"?><svg id="Capa_1" xmlns="http://www.w3.org/2000/svg" viewBox="0 0 100 80"><defs><style>.cls-1{fill:#d8d8d8;}.cls-2{fill:#eee;}.cls-3{fill:#888;}</style></defs><path class="cls-1" d="M25,66h-4c-3.86,0-7-3.14-7-7v-4c0-.55,.45-1,1-1s1,.45,1,1v4c0,2.76,2.24,5,5,5h4c.55,0,1,.45,1,1s-.45,1-1,1Z"/><path class="cls-1" d="M79,66h-4c-.55,0-1-.45-1-1s.45-1,1-1h4c2.76,0,5-2.24,5-5v-4c0-.55,.45-1,1-1s1,.45,1,1v4c0,3.86-3.14,7-7,7Z"/><path class="cls-1" d="M85,26c-.55,0-1-.45-1-1v-4c0-2.76-2.24-5-5-5h-4c-.55,0-1-.45-1-1s.45-1,1-1h4c3.86,0,7,3.14,7,7v4c0,.55-.45,1-1,1Z"/><path class="cls-1" d="M15,26c-.55,0-1-.45-1-1v-4c0-3.86,3.14-7,7-7h4c.55,0,1,.45,1,1s-.45,1-1,1h-4c-2.76,0-5,2.24-5,5v4c0,.55-.45,1-1,1Z"/><rect class="cls-2" x="38" y="26" width="36" height="4" rx="1" ry="1"/><rect class="cls-2" x="38" y="34" width="36" height="4" rx="1" ry="1"/><rect class="cls-2" x="26" y="42" width="48" height="4" rx="1" ry="1"/><rect class="cls-2" x="26" y="50" width="48" height="4" rx="1" ry="1"/><path class="cls-3" d="M30.74,33.69h-1.81v4.31h-2.92v-12h4.74c2.94,0,4.41,1.66,4.41,3.86,0,1.98-1.35,3.83-4.41,3.83Zm-.22-2.32c1.16,0,1.66-.58,1.66-1.5s-.5-1.5-1.66-1.5h-1.59v3.01h1.59Z"/></svg>