<svg id="Capa_1" data-name="Capa 1" xmlns="http://www.w3.org/2000/svg" viewBox="0 0 100 80"><defs><style>.cls-1{fill:#d8d8d8;}.cls-2{fill:#eee;}.cls-3{fill:#888;}</style></defs><path class="cls-1" d="M25,66H21a7,7,0,0,1-7-7V55a1,1,0,0,1,2,0v4a5,5,0,0,0,5,5h4a1,1,0,0,1,0,2Z"/><path class="cls-1" d="M79,66H75a1,1,0,0,1,0-2h4a5,5,0,0,0,5-5V55a1,1,0,0,1,2,0v4A7,7,0,0,1,79,66Z"/><path class="cls-1" d="M85,26a1,1,0,0,1-1-1V21a5,5,0,0,0-5-5H75a1,1,0,0,1,0-2h4a7,7,0,0,1,7,7v4A1,1,0,0,1,85,26Z"/><path class="cls-1" d="M15,26a1,1,0,0,1-1-1V21a7,7,0,0,1,7-7h4a1,1,0,0,1,0,2H21a5,5,0,0,0-5,5v4A1,1,0,0,1,15,26Z"/><rect class="cls-2" x="38" y="26" width="36" height="4" rx="1"/><rect class="cls-2" x="38" y="34" width="36" height="4" rx="1"/><rect class="cls-2" x="26" y="42" width="48" height="4" rx="1"/><rect class="cls-2" x="26" y="50" width="48" height="4" rx="1"/><path class="cls-3" d="M30.74,33.69H28.92V38H26V26h4.74c2.94,0,4.41,1.66,4.41,3.86C35.15,31.85,33.79,33.69,30.74,33.69Zm-.23-2.32c1.17,0,1.66-.58,1.66-1.51s-.49-1.5-1.66-1.5H28.92v3Z"/></svg>