<?xml version="1.0" encoding="UTF-8"?><svg id="Capa_1" xmlns="http://www.w3.org/2000/svg" viewBox="0 0 100 80"><defs><style>.cls-1{fill:#fff;}.cls-2{fill:#d8d8d8;}.cls-3{fill:#eee;}</style></defs><rect class="cls-1" x="11" y="11" width="78" height="58" rx="5" ry="5"/><path class="cls-2" d="M84,71H16c-3.86,0-7-3.14-7-7V16c0-3.86,3.14-7,7-7H84c3.86,0,7,3.14,7,7v48c0,3.86-3.14,7-7,7ZM16,11c-2.76,0-5,2.24-5,5v48c0,2.76,2.24,5,5,5H84c2.76,0,5-2.24,5-5V16c0-2.76-2.24-5-5-5H16Z"/><rect class="cls-3" x="15" y="15" width="70" height="50" rx="3" ry="3"/></svg>