<?xml version="1.0" encoding="UTF-8"?><svg id="Capa_3" xmlns="http://www.w3.org/2000/svg" viewBox="0 0 100 80"><defs><style>.cls-1{fill:#333;}.cls-2{fill:#484848;}</style></defs><path class="cls-2" d="M80,66c-.55,0-1-.45-1-1v-4c0-2.76-2.24-5-5-5H26c-2.76,0-5,2.24-5,5v4c0,.55-.45,1-1,1s-1-.45-1-1v-4c0-3.86,3.14-7,7-7h48c3.86,0,7,3.14,7,7v4c0,.55-.45,1-1,1Z"/><path class="cls-2" d="M74,26H26c-3.86,0-7-3.14-7-7v-4c0-.55,.45-1,1-1s1,.45,1,1v4c0,2.76,2.24,5,5,5h48c2.76,0,5-2.24,5-5v-4c0-.55,.45-1,1-1s1,.45,1,1v4c0,3.86-3.14,7-7,7Z"/><rect class="cls-1" x="19" y="33" width="62" height="14" rx="3" ry="3"/></svg>