<svg id="Capa_1" data-name="Capa 1" xmlns="http://www.w3.org/2000/svg" viewBox="0 0 100 80"><defs><style>.cls-1{fill:#d8d8d8;}.cls-2{fill:#eee;}</style></defs><path class="cls-1" d="M80,66a1,1,0,0,1-1-1V61a5,5,0,0,0-5-5H26a5,5,0,0,0-5,5v4a1,1,0,0,1-2,0V61a7,7,0,0,1,7-7H74a7,7,0,0,1,7,7v4A1,1,0,0,1,80,66Z"/><path class="cls-1" d="M74,26H26a7,7,0,0,1-7-7V15a1,1,0,0,1,2,0v4a5,5,0,0,0,5,5H74a5,5,0,0,0,5-5V15a1,1,0,0,1,2,0v4A7,7,0,0,1,74,26Z"/><rect class="cls-2" x="19" y="33" width="62" height="14" rx="3"/></svg>