<svg id="Capa_1" data-name="Capa 1" xmlns="http://www.w3.org/2000/svg" viewBox="0 0 100 80"><defs><style>.cls-1{fill:#fff;}.cls-2{fill:#d8d8d8;}.cls-3{fill:#eee;}</style></defs><path class="cls-1" d="M11,23H89a0,0,0,0,1,0,0V64a5,5,0,0,1-5,5H16a5,5,0,0,1-5-5V23A0,0,0,0,1,11,23Z"/><path class="cls-2" d="M84,9H16a7,7,0,0,0-7,7V64a7,7,0,0,0,7,7H84a7,7,0,0,0,7-7V16A7,7,0,0,0,84,9Zm0,60H16a5,5,0,0,1-5-5V23H89V64A5,5,0,0,1,84,69Z"/><rect class="cls-3" x="15" y="27" width="20.67" height="6.5" rx="1"/><rect class="cls-3" x="39.67" y="27" width="20.67" height="6.5" rx="1"/><rect class="cls-3" x="64.33" y="27" width="20.67" height="6.5" rx="1"/><rect class="cls-3" x="15" y="37.5" width="20.67" height="6.5" rx="1"/><rect class="cls-3" x="39.67" y="37.5" width="20.67" height="6.5" rx="1"/><rect class="cls-3" x="64.33" y="37.5" width="20.67" height="6.5" rx="1"/><rect class="cls-3" x="15" y="48" width="20.67" height="6.5" rx="1"/><rect class="cls-3" x="39.67" y="48" width="20.67" height="6.5" rx="1"/><rect class="cls-3" x="64.33" y="48" width="20.67" height="6.5" rx="1"/><rect class="cls-3" x="15" y="58.5" width="20.67" height="6.5" rx="1"/><rect class="cls-3" x="39.67" y="58.5" width="20.67" height="6.5" rx="1"/><rect class="cls-3" x="64.33" y="58.5" width="20.67" height="6.5" rx="1"/></svg>