<?xml version="1.0" encoding="UTF-8"?><svg id="Capa_3" xmlns="http://www.w3.org/2000/svg" viewBox="0 0 100 80"><defs><style>.cls-1{fill:#222;}.cls-2{fill:#333;}.cls-3{fill:#484848;}</style></defs><path class="cls-1" d="M11,23H89v41c0,2.76-2.24,5-5,5H16c-2.76,0-5-2.24-5-5V23h0Z"/><path class="cls-3" d="M84,9H16c-3.86,0-7,3.14-7,7v48c0,3.86,3.14,7,7,7H84c3.86,0,7-3.14,7-7V16c0-3.86-3.14-7-7-7Zm0,60H16c-2.76,0-5-2.24-5-5V23H89v41c0,2.76-2.24,5-5,5Z"/><rect class="cls-2" x="15" y="27" width="20.67" height="6.5" rx="1" ry="1"/><rect class="cls-2" x="39.67" y="27" width="20.67" height="6.5" rx="1" ry="1"/><rect class="cls-2" x="64.33" y="27" width="20.67" height="6.5" rx="1" ry="1"/><rect class="cls-2" x="15" y="37.5" width="20.67" height="6.5" rx="1" ry="1"/><rect class="cls-2" x="39.67" y="37.5" width="20.67" height="6.5" rx="1" ry="1"/><rect class="cls-2" x="64.33" y="37.5" width="20.67" height="6.5" rx="1" ry="1"/><rect class="cls-2" x="15" y="48" width="20.67" height="6.5" rx="1" ry="1"/><rect class="cls-2" x="39.67" y="48" width="20.67" height="6.5" rx="1" ry="1"/><rect class="cls-2" x="64.33" y="48" width="20.67" height="6.5" rx="1" ry="1"/><rect class="cls-2" x="15" y="58.5" width="20.67" height="6.5" rx="1" ry="1"/><rect class="cls-2" x="39.67" y="58.5" width="20.67" height="6.5" rx="1" ry="1"/><rect class="cls-2" x="64.33" y="58.5" width="20.67" height="6.5" rx="1" ry="1"/></svg>